<?xml version="1.0" encoding="UTF-8"?>
<svg width="500" height="500" viewBox="0 0 500 500" fill="none" xmlns="http://www.w3.org/2000/svg">
  <!-- SS Symbol -->
  <path d="M250 180 L270 200 L290 180 L310 200 L290 220 L270 240 L250 220 L230 200 L210 180 L230 160 L250 180 Z" fill="white"/>
  <path d="M230 200 L210 220 L190 200 L210 180 L230 200 Z" fill="white"/>
  <path d="M270 200 L290 180 L310 160 L290 140 L270 160 L250 140 L230 120 L250 100 L270 120 L290 100 L310 120 L290 140 L270 160 L250 180 L230 160 L210 140 L190 160 L210 180 L230 160 L250 140 L270 160 L290 140 L270 120 L250 140 L230 160 L210 180 L230 200 Z" fill="white"/>
  
  <!-- Schwarzes Text -->
  <path d="M125 300 Q115 300 110 305 Q105 310 105 315 Q105 320 110 325 Q115 330 130 335 Q145 340 150 345 Q155 350 155 360 Q155 370 145 375 Q135 380 125 380 Q110 380 100 370 Q95 365 95 360 L105 355 Q105 360 110 365 Q115 370 125 370 Q135 370 140 365 Q145 360 145 355 Q145 350 140 345 Q135 340 120 335 Q105 330 100 325 Q95 320 95 310 Q95 300 105 295 Q115 290 125 290 Q140 290 150 300 Q155 305 155 310 L145 315 Q145 310 140 305 Q135 300 125 300 Z" fill="white"/>
  <path d="M160 290 L170 290 L170 345 Q170 350 175 355 Q180 360 185 360 Q190 360 195 355 Q200 350 200 345 L200 290 L210 290 L210 345 Q210 355 200 365 Q190 375 185 375 Q175 375 165 365 Q160 360 160 355 L160 290 Z" fill="white"/>
  <path d="M220 290 L230 290 L250 350 L270 290 L280 290 L255 365 Q250 375 245 375 L240 375 L240 365 L245 365 Q250 365 250 360 L250 355 L220 290 Z" fill="white"/>
  <path d="M290 290 L330 290 L330 300 L300 300 L300 325 L325 325 L325 335 L300 335 L300 365 L330 365 L330 375 L290 375 L290 290 Z" fill="white"/>
  <path d="M340 290 L380 290 L380 300 L350 300 L350 325 L375 325 L375 335 L350 335 L350 365 L380 365 L380 375 L340 375 L340 290 Z" fill="white"/>
  
  <!-- Schild Text -->
  <path d="M145 390 Q135 390 130 395 Q125 400 125 405 Q125 410 130 415 Q135 420 150 425 Q165 430 170 435 Q175 440 175 450 Q175 460 165 465 Q155 470 145 470 Q130 470 120 460 Q115 455 115 450 L125 445 Q125 450 130 455 Q135 460 145 460 Q155 460 160 455 Q165 450 165 445 Q165 440 160 435 Q155 430 140 425 Q125 420 120 415 Q115 410 115 400 Q115 390 125 385 Q135 380 145 380 Q160 380 170 390 Q175 395 175 400 L165 405 Q165 400 160 395 Q155 390 145 390 Z" fill="white"/>
  <path d="M185 380 L195 380 L195 460 Q195 465 200 470 Q205 475 210 475 Q215 475 220 470 Q225 465 225 460 L225 380 L235 380 L235 460 Q235 470 225 480 Q215 490 210 490 Q200 490 190 480 Q185 475 185 470 L185 380 Z" fill="white"/>
  <path d="M250 380 L260 380 L260 470 L290 470 L290 480 L250 480 L250 380 Z" fill="white"/>
  <path d="M300 380 L310 380 L310 480 L300 480 L300 380 Z" fill="white"/>
  <path d="M325 380 L345 380 L367 458 L368 458 L368 380 L378 380 L378 480 L360 480 L336 395 L335 395 L335 480 L325 480 L325 380 Z" fill="white"/>
  <path d="M390 380 L400 380 L400 470 L430 470 L430 480 L390 480 L390 380 Z" fill="white"/>
</svg>